ply
format ascii 1.0
element vertex 2036
property float x
property float y
property float z
end_header
-2.990676 -1.903219 -1.217011
-2.990676 -1.903219 -1.217011
-3.007299 -1.855318 -1.213114
-3.007299 -1.855318 -1.213114
-6.846737 -5.711979 0.248745
-6.750161 -5.645003 -0.998994
-6.846737 -5.711979 0.248745
-6.165742 -5.013974 -1.017760
-5.767252 -4.677394 0.308886
-5.917335 -4.794837 0.425536
-6.269634 -5.084839 0.562637
-6.165742 -5.013974 -1.017760
-6.800563 -5.527646 -0.994933
-5.767252 -4.677394 0.308886
-5.917335 -4.794837 0.425536
-6.269634 -5.084839 0.562637
-5.258705 -4.160974 -1.053214
-5.668958 -4.482856 -1.028072
-6.169776 -4.875738 -1.007089
-5.651367 -4.463975 -0.817605
-5.651474 -4.461820 -0.716037
-5.647453 -4.456565 -0.611310
-5.628651 -4.441410 -0.509417
-5.634490 -4.444583 -0.406877
-5.622911 -4.434972 -0.306785
-5.633076 -4.440914 -0.204244
-5.647701 -4.451645 -0.105809
-5.727322 -4.513430 -0.002163
-5.579316 -4.396478 0.095095
-5.759876 -4.538599 0.204573
-5.831996 -4.596415 0.308886
-6.121766 -4.820464 0.435355
-6.665951 -5.253686 0.591561
-5.258705 -4.160974 -1.053214
-5.668958 -4.482856 -1.028072
-6.169776 -4.875738 -1.007089
-6.814701 -5.382885 -0.985909
-5.651474 -4.461820 -0.716037
-5.647453 -4.456565 -0.611310
-5.628651 -4.441410 -0.509417
-5.634490 -4.444583 -0.406877
-5.622911 -4.434972 -0.306785
-5.633076 -4.440914 -0.204244
-5.647701 -4.451645 -0.105809
-5.727322 -4.513430 -0.002163
-5.579316 -4.396478 0.095095
-5.759876 -4.538599 0.204573
-5.831996 -4.596415 0.308886
-6.121766 -4.820464 0.435355
-4.596206 -3.537763 -1.081260
-4.912614 -3.778306 -1.062812
-5.259900 -4.043794 -1.042043
-5.699593 -4.379140 -1.022438
-6.221516 -4.777038 -1.004549
-5.728908 -4.396734 -0.819861
-5.691112 -4.365520 -0.713266
-5.655356 -4.336053 -0.605553
-5.655284 -4.335686 -0.506298
-5.680148 -4.353334 -0.405745
-5.662082 -4.339016 -0.305587
-5.662789 -4.337518 -0.203105
-5.716733 -4.377094 -0.002135
-5.757659 -4.408112 0.097076
-5.800458 -4.440722 0.203792
-5.952720 -4.558276 0.311879
-6.245568 -4.778202 0.439371
-6.821026 -5.223178 0.598792
-4.596206 -3.537763 -1.081260
-4.912614 -3.778306 -1.062812
-5.259900 -4.043794 -1.042043
-5.699593 -4.379140 -1.022438
-6.221516 -4.777038 -1.004549
-6.838746 -5.248495 -0.978690
-5.691112 -4.365520 -0.713266
-5.655356 -4.336053 -0.605553
-5.655284 -4.335686 -0.506298
-5.680148 -4.353334 -0.405745
-5.662082 -4.339016 -0.305587
-5.662789 -4.337518 -0.203105
-5.716733 -4.377094 -0.002135
-5.757659 -4.408112 0.097076
-5.800458 -4.440722 0.203792
-5.952720 -4.558276 0.311879
-6.245568 -4.778202 0.439371
-4.320350 -3.232738 -1.085360
-4.588466 -3.430860 -1.068065
-4.958572 -3.704627 -1.061460
-5.331677 -3.981783 -1.045146
-5.737964 -4.282554 -1.018495
-6.268525 -4.675473 -1.001500
-5.713264 -4.259305 -0.809032
-5.690866 -4.240447 -0.705745
-5.683381 -4.232863 -0.602166
-5.686468 -4.234855 -0.503747
-5.695529 -4.240215 -0.402575
-5.661204 -4.214198 -0.302334
-5.668265 -4.217455 -0.201170
-5.724870 -4.258795 -0.104985
-5.748404 -4.275365 -0.002125
-5.792969 -4.308198 0.096648
-5.903605 -4.390321 0.205242
-6.459127 -4.800115 0.449636
-4.320350 -3.232738 -1.085360
-4.588466 -3.430860 -1.068065
-4.958572 -3.704627 -1.061460
-5.331677 -3.981783 -1.045146
-5.737964 -4.282554 -1.018495
-6.268525 -4.675473 -1.001500
-6.838072 -5.097863 -0.968312
-5.690866 -4.240447 -0.705745
-5.683381 -4.232863 -0.602166
-5.686468 -4.234855 -0.503747
-5.695529 -4.240215 -0.402575
-5.661204 -4.214198 -0.302334
-5.668265 -4.217455 -0.201170
-5.724870 -4.258795 -0.104985
-5.748404 -4.275365 -0.002125
-5.792969 -4.308198 0.096648
-5.903605 -4.390321 0.205242
-6.459127 -4.800115 0.449636
-3.901020 -2.843105 -1.191462
-3.903671 -2.841908 -1.116625
-4.034751 -2.933785 -1.079122
-4.339686 -3.153658 -1.079050
-4.629558 -3.361840 -1.066599
-4.971523 -3.607250 -1.053347
-5.345168 -3.876792 -1.037078
-5.806818 -4.208994 -1.020185
-6.297849 -4.561893 -0.995911
-5.772176 -4.179120 -0.809032
-5.743069 -4.155910 -0.704954
-5.741927 -4.153098 -0.602166
-5.706245 -4.126987 -0.500345
-5.705633 -4.125182 -0.399178
-5.700060 -4.120697 -0.301307
-5.681226 -4.105118 -0.199576
-5.872011 -4.240946 0.096969
-6.404883 -4.626653 0.328669
-6.901180 -4.980579 0.475521
-3.901020 -2.843105 -1.191462
-3.903671 -2.841908 -1.116625
-4.034751 -2.933785 -1.079122
-4.339686 -3.153658 -1.079050
-4.629558 -3.361840 -1.066599
-4.971523 -3.607250 -1.053347
-5.345168 -3.876792 -1.037078
-5.806818 -4.208994 -1.020185
-6.297849 -4.561893 -0.995911
-6.889267 -4.987907 -0.965604
-5.743069 -4.155910 -0.704954
-5.741927 -4.153098 -0.602166
-5.706245 -4.126987 -0.500345
-5.705633 -4.125182 -0.399178
-5.700060 -4.120697 -0.301307
-5.681226 -4.105118 -0.199576
-5.872011 -4.240946 0.096969
-6.404883 -4.626653 0.328669
-6.901180 -4.980579 0.475521
-3.773162 -2.672734 -1.211671
-3.927656 -2.779388 -1.187628
-3.923875 -2.773630 -1.111218
-4.052963 -2.861382 -1.073202
-4.360867 -3.076934 -1.073529
-4.650334 -3.278746 -1.060735
-5.034295 -3.546567 -1.056051
-5.402006 -3.804059 -1.037699
-5.855303 -4.120671 -1.018495
-6.373910 -4.482646 -0.997943
-5.729166 -4.027267 -0.795044
-5.741910 -4.034131 -0.697829
-5.747166 -4.035875 -0.596747
-5.822086 -4.088185 -0.505448
-5.785553 -4.061178 -0.400763
-5.711243 -4.008568 -0.298910
-5.731441 -4.020802 -0.199348
-5.782610 -4.055947 -0.103926
-5.803313 -4.069558 -0.002102
-5.914278 -4.147066 0.096701
-6.348001 -4.451028 0.216285
-3.773162 -2.672734 -1.211671
-3.927656 -2.779388 -1.187628
-3.923875 -2.773630 -1.111218
-4.052963 -2.861382 -1.073202
-4.360867 -3.076934 -1.073529
-4.650334 -3.278746 -1.060735
-5.034295 -3.546567 -1.056051
-5.402006 -3.804059 -1.037699
-5.855303 -4.120671 -1.018495
-6.373910 -4.482646 -0.997943
-5.729166 -4.027267 -0.795044
-5.741910 -4.034131 -0.697829
-5.747166 -4.035875 -0.596747
-5.822086 -4.088185 -0.505448
-5.785553 -4.061178 -0.400763
-5.711243 -4.008568 -0.298910
-5.731441 -4.020802 -0.199348
-5.782610 -4.055947 -0.103926
-5.803313 -4.069558 -0.002102
-5.914278 -4.147066 0.096701
-6.348001 -4.451028 0.216285
-3.409923 -2.349711 -1.216200
-3.580710 -2.464726 -1.209040
-3.803735 -2.615407 -1.209643
-3.930868 -2.700092 -1.177084
-3.946151 -2.707550 -1.106712
-4.082844 -2.797884 -1.070665
-4.354870 -2.982509 -1.061697
-4.689169 -3.209056 -1.059268
-5.060542 -3.460355 -1.051319
-5.412182 -3.699277 -1.029630
-5.814164 -3.971506 -1.001595
-5.767385 -3.936894 -0.894287
-5.788120 -3.949122 -0.795495
-5.774655 -3.937870 -0.695058
-5.783195 -3.941770 -0.594715
-5.766500 -3.930098 -0.495810
-5.884598 -4.009234 -0.403707
-5.809591 -3.957685 -0.301136
-5.727532 -3.899881 -0.197299
-5.739493 -3.907292 -0.102160
-5.803352 -3.949874 -0.002082
-5.968297 -4.061835 0.096648
-6.518611 -4.436199 0.219966
-7.033745 -4.787843 0.353939
-3.409923 -2.349711 -1.216200
-3.580710 -2.464726 -1.209040
-3.803735 -2.615407 -1.209643
-3.930868 -2.700092 -1.177084
-3.946151 -2.707550 -1.106712
-4.082844 -2.797884 -1.070665
-4.354870 -2.982509 -1.061697
-4.689169 -3.209056 -1.059268
-5.060542 -3.460355 -1.051319
-5.412182 -3.699277 -1.029630
-5.814164 -3.971506 -1.001595
-5.767385 -3.936894 -0.894287
-5.788120 -3.949122 -0.795495
-5.774655 -3.937870 -0.695058
-5.783195 -3.941770 -0.594715
-5.766500 -3.930098 -0.495810
-5.884598 -4.009234 -0.403707
-5.809591 -3.957685 -0.301136
-5.727532 -3.899881 -0.197299
-5.739493 -3.907292 -0.102160
-5.803352 -3.949874 -0.002082
-5.968297 -4.061835 0.096648
-6.518611 -4.436199 0.219966
-7.033745 -4.787843 0.353939
-3.274105 -2.189919 -1.221423
-3.442397 -2.301872 -1.216200
-3.630798 -2.425195 -1.214399
-3.839881 -2.562043 -1.209643
-3.968184 -2.644945 -1.177084
-3.970594 -2.643550 -1.103107
-4.111744 -2.734112 -1.068128
-4.405887 -2.927926 -1.064063
-4.704036 -3.123695 -1.052671
-5.095222 -3.380643 -1.048614
-5.456718 -3.618982 -1.028389
-5.799728 -3.843996 -0.989765
-5.811866 -3.849412 -0.892763
-5.836066 -3.863534 -0.794593
-5.805838 -3.841485 -0.692288
-5.804422 -3.838655 -0.591328
-5.787530 -3.827193 -0.492975
-5.783422 -3.823174 -0.393065
-6.027643 -3.984163 -0.309525
-5.761409 -3.806308 -0.196616
-5.793487 -3.826775 -0.102160
-5.857935 -3.868461 -0.002082
-6.061141 -4.002351 0.097237
-6.906909 -4.560668 0.230898
-3.274105 -2.189919 -1.221423
-3.442397 -2.301872 -1.216200
-3.630798 -2.425195 -1.214399
-3.839881 -2.562043 -1.209643
-3.968184 -2.644945 -1.177084
-3.970594 -2.643550 -1.103107
-4.111744 -2.734112 -1.068128
-4.405887 -2.927926 -1.064063
-4.704036 -3.123695 -1.052671
-5.095222 -3.380643 -1.048614
-5.456718 -3.618982 -1.028389
-5.799728 -3.843996 -0.989765
-5.811866 -3.849412 -0.892763
-5.836066 -3.863534 -0.794593
-5.805838 -3.841485 -0.692288
-5.804422 -3.838655 -0.591328
-5.787530 -3.827193 -0.492975
-5.783422 -3.823174 -0.393065
-6.027643 -3.984163 -0.309525
-5.761409 -3.806308 -0.196616
-5.793487 -3.826775 -0.102160
-5.857935 -3.868461 -0.002082
-6.061141 -4.002351 0.097237
-6.906909 -4.560668 0.230898
-3.127530 -2.033914 -1.216358
-3.285131 -2.131515 -1.214315
-3.490300 -2.264027 -1.221836
-3.631963 -2.353308 -1.203681
-3.859036 -2.497669 -1.204573
-3.985159 -2.576631 -1.171333
-3.977652 -2.568825 -1.094996
-4.119949 -2.657365 -1.060517
-4.429857 -2.855502 -1.060120
-4.737273 -3.051324 -1.050472
-5.108774 -3.287837 -1.041853
-5.476806 -3.523201 -1.022803
-5.819522 -3.741229 -0.984132
-5.828327 -3.744301 -0.887174
-5.835930 -3.747314 -0.787374
-5.828758 -3.740700 -0.688725
-5.844034 -3.748631 -0.589974
-5.884062 -3.774018 -0.496660
-5.819429 -3.731275 -0.391933
-5.975025 -3.830596 -0.304046
-5.776959 -3.701766 -0.195364
-5.795837 -3.713149 -0.101278
-5.874325 -3.762563 -0.002069
-6.183793 -3.960477 0.098308
-3.127530 -2.033914 -1.216358
-3.285131 -2.131515 -1.214315
-3.490300 -2.264027 -1.221836
-3.631963 -2.353308 -1.203681
-3.859036 -2.497669 -1.204573
-3.985159 -2.576631 -1.171333
-3.977652 -2.568825 -1.094996
-4.119949 -2.657365 -1.060517
-4.429857 -2.855502 -1.060120
-4.737273 -3.051324 -1.050472
-5.108774 -3.287837 -1.041853
-5.476806 -3.523201 -1.022803
-5.819522 -3.741229 -0.984132
-5.828327 -3.744301 -0.887174
-5.835930 -3.747314 -0.787374
-5.828758 -3.740700 -0.688725
-5.844034 -3.748631 -0.589974
-5.884062 -3.774018 -0.496660
-5.819429 -3.731275 -0.391933
-5.975025 -3.830596 -0.304046
-5.776959 -3.701766 -0.195364
-5.795837 -3.713149 -0.101278
-5.874325 -3.762563 -0.002069
-6.183793 -3.960477 0.098308
-3.149189 -1.985991 -1.213878
-3.321039 -2.089508 -1.216684
-3.537815 -2.225291 -1.227472
-3.657940 -2.298269 -1.201537
-3.903365 -2.449715 -1.207615
-4.001005 -2.508362 -1.165582
-3.986707 -2.496492 -1.087786
-4.156650 -2.599582 -1.060517
-4.442691 -2.776746 -1.053809
-4.789421 -2.991132 -1.052671
-5.147492 -3.212013 -1.040501
-5.515405 -3.440116 -1.020941
-5.857748 -3.651232 -0.981879
-5.869934 -3.656267 -0.885649
-5.840446 -3.636059 -0.781057
-5.866900 -3.650542 -0.687142
-5.851804 -3.639307 -0.585571
-5.827758 -3.624071 -0.487589
-5.840434 -3.630683 -0.389895
-5.997378 -3.727811 -0.302505
-5.804307 -3.605976 -0.194567
-6.221498 -3.863202 0.098040
-3.149189 -1.985991 -1.213878
-3.321039 -2.089508 -1.216684
-3.537815 -2.225291 -1.227472
-3.657940 -2.298269 -1.201537
-3.903365 -2.449715 -1.207615
-4.001005 -2.508362 -1.165582
-3.986707 -2.496492 -1.087786
-4.156650 -2.599582 -1.060517
-4.442691 -2.776746 -1.053809
-4.789421 -2.991132 -1.052671
-5.147492 -3.212013 -1.040501
-5.515405 -3.440116 -1.020941
-5.857748 -3.651232 -0.981879
-6.620935 -4.124051 -0.998960
-5.840446 -3.636059 -0.781057
-5.866900 -3.650542 -0.687142
-5.851804 -3.639307 -0.585571
-5.827758 -3.624071 -0.487589
-5.840434 -3.630683 -0.389895
-5.997378 -3.727811 -0.302505
-5.804307 -3.605976 -0.194567
-6.221498 -3.863202 0.098040
-3.189591 -1.949762 -1.218838
-3.336842 -2.034978 -1.211945
-3.552155 -2.165689 -1.221836
-3.706130 -2.256994 -1.206896
-3.953717 -2.405031 -1.212685
-4.022362 -2.444188 -1.161747
-4.011181 -2.434520 -1.085082
-4.185854 -2.537240 -1.058825
-4.487736 -2.718509 -1.055387
-4.800440 -2.905644 -1.046073
-5.144608 -3.111267 -1.031036
-5.545990 -3.352552 -1.017838
-5.901377 -3.564994 -0.980752
-5.862668 -3.539095 -0.877011
-5.863419 -3.537733 -0.777447
-5.910480 -3.564161 -0.686350
-5.861084 -3.532559 -0.581507
-5.853869 -3.527933 -0.485604
-5.890557 -3.548784 -0.389895
-5.846871 -3.522048 -0.292405
-5.854088 -3.524584 -0.194567
-5.873268 -3.535433 -0.100866
-5.956528 -3.584700 -0.002062
-6.350224 -3.821329 0.099218
-3.189591 -1.949762 -1.218838
-3.336842 -2.034978 -1.211945
-3.552155 -2.165689 -1.221836
-3.706130 -2.256994 -1.206896
-3.953717 -2.405031 -1.212685
-4.022362 -2.444188 -1.161747
-4.011181 -2.434520 -1.085082
-4.185854 -2.537240 -1.058825
-4.487736 -2.718509 -1.055387
-4.800440 -2.905644 -1.046073
-5.144608 -3.111267 -1.031036
-5.545990 -3.352552 -1.017838
-5.901377 -3.564994 -0.980752
-5.862668 -3.539095 -0.877011
-5.863419 -3.537733 -0.777447
-5.910480 -3.564161 -0.686350
-5.861084 -3.532559 -0.581507
-5.853869 -3.527933 -0.485604
-5.890557 -3.548784 -0.389895
-5.846871 -3.522048 -0.292405
-5.854088 -3.524584 -0.194567
-5.873268 -3.535433 -0.100866
-5.956528 -3.584700 -0.002062
-6.350224 -3.821329 0.099218
-3.196870 -1.893411 -1.211398
-3.351773 -1.980417 -1.207207
-3.555611 -2.100267 -1.212819
-3.730643 -2.201112 -1.204753
-3.973577 -2.341736 -1.208629
-4.022630 -2.368088 -1.152162
-4.034703 -2.372351 -1.082379
-4.193901 -2.462711 -1.052060
-4.498198 -2.639708 -1.049077
-4.820189 -2.826403 -1.041675
-5.177341 -3.033155 -1.029008
-5.568389 -3.260813 -1.013494
-6.070203 -3.552255 -1.000468
-5.897810 -3.448884 -0.874979
-5.895086 -3.445495 -0.775191
-5.890929 -3.441137 -0.678434
-5.889183 -3.438323 -0.579475
-5.964580 -3.482065 -0.490707
-6.091296 -3.554760 -0.399858
-5.878219 -3.429999 -0.291549
-5.857828 -3.416318 -0.193087
-5.870231 -3.422865 -0.099983
-5.978353 -3.485068 -0.002052
-6.440969 -3.754450 0.099807
-3.196870 -1.893411 -1.211398
-3.351773 -1.980417 -1.207207
-3.555611 -2.100267 -1.212819
-3.730643 -2.201112 -1.204753
-3.973577 -2.341736 -1.208629
-4.022630 -2.368088 -1.152162
-4.034703 -2.372351 -1.082379
-4.193901 -2.462711 -1.052060
-4.498198 -2.639708 -1.049077
-4.820189 -2.826403 -1.041675
-5.177341 -3.033155 -1.029008
-5.568389 -3.260813 -1.013494
-6.070203 -3.552255 -1.000468
-5.897810 -3.448884 -0.874979
-5.895086 -3.445495 -0.775191
-5.890929 -3.441137 -0.678434
-5.889183 -3.438323 -0.579475
-5.964580 -3.482065 -0.490707
-6.091296 -3.554760 -0.399858
-5.878219 -3.429999 -0.291549
-5.857828 -3.416318 -0.193087
-5.870231 -3.422865 -0.099983
-5.978353 -3.485068 -0.002052
-6.440969 -3.754450 0.099807
-3.219695 -1.846699 -1.210158
-3.382413 -1.935323 -1.208391
-3.607908 -2.063757 -1.220709
-3.777742 -2.158368 -1.210112
-4.002525 -2.284110 -1.207615
-4.051928 -2.309769 -1.151204
-4.057272 -2.310002 -1.079675
-4.193891 -2.384591 -1.043602
-4.527797 -2.572771 -1.047499
-4.818147 -2.735529 -1.032878
-5.219185 -2.960572 -1.029008
-5.623687 -3.188596 -1.015356
-6.029626 -3.416398 -0.985822
-6.580669 -3.725888 -0.968473
-6.101733 -3.452892 -0.795947
-5.997299 -3.391862 -0.685163
-5.926207 -3.349879 -0.578459
-5.918831 -3.345438 -0.483053
-5.917808 -3.343636 -0.385367
-5.894221 -3.329901 -0.290008
-5.929328 -3.347958 -0.193884
-5.941830 -3.354334 -0.100395
-6.043847 -3.411088 -0.002058
-6.503211 -3.670051 0.099968
-3.219695 -1.846699 -1.210158
-3.382413 -1.935323 -1.208391
-3.607908 -2.063757 -1.220709
-3.777742 -2.158368 -1.210112
-4.002525 -2.284110 -1.207615
-4.051928 -2.309769 -1.151204
-4.057272 -2.310002 -1.079675
-4.193891 -2.384591 -1.043602
-4.527797 -2.572771 -1.047499
-4.818147 -2.735529 -1.032878
-5.219185 -2.960572 -1.029008
-5.623687 -3.188596 -1.015356
-6.029626 -3.416398 -0.985822
-6.580669 -3.725888 -0.968473
-7.177492 -4.061650 -0.936275
-5.997299 -3.391862 -0.685163
-5.926207 -3.349879 -0.578459
-5.918831 -3.345438 -0.483053
-5.917808 -3.343636 -0.385367
-5.894221 -3.329901 -0.290008
-5.929328 -3.347958 -0.193884
-5.941830 -3.354334 -0.100395
-6.043847 -3.411088 -0.002058
-6.503211 -3.670051 0.099968
-3.231866 -1.794181 -1.205199
-3.389051 -1.876803 -1.201283
-3.629656 -2.009464 -1.218455
-3.797392 -2.099818 -1.206896
-3.993380 -2.205555 -1.195447
-4.073581 -2.247343 -1.148328
-4.078889 -2.247486 -1.076971
-4.216500 -2.320149 -1.041065
-4.559840 -2.507413 -1.046710
-4.848979 -2.664203 -1.031412
-5.235821 -2.874133 -1.024275
-5.643408 -3.096460 -1.011011
-6.094100 -3.341398 -0.988639
-6.611172 -3.622206 -0.965424
-6.006421 -3.289095 -0.777447
-5.953290 -3.258112 -0.674872
-5.968904 -3.264897 -0.578120
-5.954462 -3.256729 -0.482203
-5.949900 -3.253021 -0.384461
-5.957672 -3.256865 -0.290864
-5.964969 -3.259094 -0.193542
-6.019675 -3.288302 -0.100925
-6.669661 -3.642153 0.101735
-3.231866 -1.794181 -1.205199
-3.389051 -1.876803 -1.201283
-3.629656 -2.009464 -1.218455
-3.797392 -2.099818 -1.206896
-3.993380 -2.205555 -1.195447
-4.073581 -2.247343 -1.148328
-4.078889 -2.247486 -1.076971
-4.216500 -2.320149 -1.041065
-4.559840 -2.507413 -1.046710
-4.848979 -2.664203 -1.031412
-5.235821 -2.874133 -1.024275
-5.643408 -3.096460 -1.011011
-6.094100 -3.341398 -0.988639
-6.611172 -3.622206 -0.965424
-7.177725 -3.930498 -0.929056
-5.953290 -3.258112 -0.674872
-5.968904 -3.264897 -0.578120
-5.954462 -3.256729 -0.482203
-5.949900 -3.253021 -0.384461
-5.957672 -3.256865 -0.290864
-5.964969 -3.259094 -0.193542
-6.019675 -3.288302 -0.100925
-6.669661 -3.642153 0.101735
-3.249901 -1.745284 -1.202719
-3.418293 -1.831106 -1.202468
-3.603225 -1.929601 -1.200420
-3.795756 -2.030235 -1.197250
-4.037437 -2.156877 -1.199503
-4.090857 -2.182934 -1.144494
-4.092676 -2.181153 -1.072465
-4.258837 -2.266561 -1.043602
-4.570169 -2.430614 -1.041189
-4.878759 -2.592551 -1.029946
-5.237137 -2.780413 -1.016838
-5.633733 -2.989580 -1.001702
-6.143658 -3.257840 -0.989202
-6.647078 -3.522116 -0.963391
-6.065808 -3.212353 -0.779252
-5.994682 -3.172812 -0.674476
-6.038568 -3.194285 -0.580491
-6.009934 -3.178871 -0.483053
-6.030044 -3.188298 -0.386725
-6.016696 -3.180836 -0.291549
-6.052314 -3.197908 -0.194908
-6.118046 -3.231957 -0.101807
-6.235770 -3.293308 -0.002091
-6.670349 -3.522527 0.100985
-3.249901 -1.745284 -1.202719
-3.418293 -1.831106 -1.202468
-3.603225 -1.929601 -1.200420
-3.795756 -2.030235 -1.197250
-4.037437 -2.156877 -1.199503
-4.090857 -2.182934 -1.144494
-4.092676 -2.181153 -1.072465
-4.258837 -2.266561 -1.043602
-4.570169 -2.430614 -1.041189
-4.878759 -2.592551 -1.029946
-5.237137 -2.780413 -1.016838
-5.633733 -2.989580 -1.001702
-6.143658 -3.257840 -0.989202
-6.647078 -3.522116 -0.963391
-7.295126 -3.863379 -0.937178
-5.994682 -3.172812 -0.674476
-6.038568 -3.194285 -0.580491
-6.009934 -3.178871 -0.483053
-6.030044 -3.188298 -0.386725
-6.016696 -3.180836 -0.291549
-6.052314 -3.197908 -0.194908
-6.118046 -3.231957 -0.101807
-6.235770 -3.293308 -0.002091
-6.670349 -3.522527 0.100985
-3.280702 -1.703243 -1.205199
-3.433348 -1.777930 -1.198914
-3.646857 -1.887926 -1.206056
-3.816886 -1.973500 -1.195106
-4.049968 -2.091418 -1.194433
-4.110582 -2.120264 -1.141618
-4.126195 -2.125582 -1.073366
-4.286592 -2.205089 -1.042757
-4.600173 -2.364774 -1.040400
-4.907486 -2.520587 -1.028480
-5.278954 -2.708821 -1.017514
-5.671409 -2.908826 -1.001081
-6.149780 -3.151875 -0.983005
-6.677948 -3.419922 -0.960851
-7.284673 -3.728551 -0.929056
-6.091551 -3.115994 -0.680413
-6.086128 -3.111477 -0.580829
-6.124785 -3.130971 -0.488723
-6.137983 -3.136504 -0.390801
-6.199312 -3.167432 -0.298226
-6.149788 -3.140369 -0.196616
-6.208883 -3.169862 -0.102572
-6.363087 -3.247747 -0.002119
-6.993193 -3.569049 0.105108
-3.280702 -1.703243 -1.205199
-3.433348 -1.777930 -1.198914
-3.646857 -1.887926 -1.206056
-3.816886 -1.973500 -1.195106
-4.049968 -2.091418 -1.194433
-4.110582 -2.120264 -1.141618
-4.126195 -2.125582 -1.073366
-4.286592 -2.205089 -1.042757
-4.600173 -2.364774 -1.040400
-4.907486 -2.520587 -1.028480
-5.278954 -2.708821 -1.017514
-5.671409 -2.908826 -1.001081
-6.149780 -3.151875 -0.983005
-6.677948 -3.419922 -0.960851
-7.284673 -3.728551 -0.929056
-6.091551 -3.115994 -0.680413
-6.086128 -3.111477 -0.580829
-6.124785 -3.130971 -0.488723
-6.137983 -3.136504 -0.390801
-6.199312 -3.167432 -0.298226
-6.149788 -3.140369 -0.196616
-6.208883 -3.169862 -0.102572
-6.363087 -3.247747 -0.002119
-3.276969 -1.643631 -1.195279
-3.444170 -1.722982 -1.194175
-3.648833 -1.824807 -1.198166
-3.823383 -1.909684 -1.188675
-4.078774 -2.034668 -1.194433
-4.132833 -2.059201 -1.139701
-4.127558 -2.053875 -1.066156
-4.313460 -2.143285 -1.041911
-4.608155 -2.288107 -1.034879
-4.921065 -2.441337 -1.024082
-5.305664 -2.629599 -1.015486
-5.700847 -2.824095 -0.999219
-6.175442 -3.056920 -0.980189
-6.700153 -3.314037 -0.957294
-7.307518 -3.612388 -0.925446
-6.198699 -3.062373 -0.687538
-6.179010 -3.050901 -0.585571
-6.228724 -3.075178 -0.493542
-6.252801 -3.085846 -0.395329
-6.318191 -3.117704 -0.301821
-6.243239 -3.078957 -0.198210
-6.295583 -3.104089 -0.103279
-6.562088 -3.234634 -0.002170
-7.243245 -3.570082 0.108106
-3.276969 -1.643631 -1.195279
-3.444170 -1.722982 -1.194175
-3.648833 -1.824807 -1.198166
-3.823383 -1.909684 -1.188675
-4.078774 -2.034668 -1.194433
-4.132833 -2.059201 -1.139701
-4.127558 -2.053875 -1.066156
-4.313460 -2.143285 -1.041911
-4.608155 -2.288107 -1.034879
-4.921065 -2.441337 -1.024082
-5.305664 -2.629599 -1.015486
-5.700847 -2.824095 -0.999219
-6.175442 -3.056920 -0.980189
-6.700153 -3.314037 -0.957294
-7.307518 -3.612388 -0.925446
-6.198699 -3.062373 -0.687538
-6.179010 -3.050901 -0.585571
-6.228724 -3.075178 -0.493542
-6.252801 -3.085846 -0.395329
-6.318191 -3.117704 -0.301821
-6.243239 -3.078957 -0.198210
-6.295583 -3.104089 -0.103279
-6.562088 -3.234634 -0.002170
-3.299598 -1.597717 -1.195279
-3.478211 -1.679710 -1.197729
-3.656675 -1.765341 -1.192530
-3.863559 -1.862810 -1.192962
-4.092840 -1.970806 -1.190378
-4.168181 -2.004663 -1.141618
-4.166371 -2.001107 -1.068860
-4.314764 -2.069325 -1.035145
-4.639654 -2.223545 -1.034879
-4.951125 -2.370692 -1.023349
-5.348974 -2.558666 -1.016838
-5.714766 -2.732292 -0.994875
-6.163921 -2.944792 -0.971739
-6.727868 -3.211619 -0.954753
-7.332134 -3.498028 -0.922287
-6.312710 -3.009788 -0.695454
-6.314554 -3.008908 -0.594377
-6.353898 -3.027385 -0.500062
-6.370994 -3.034304 -0.400084
-6.397186 -3.046367 -0.303533
-6.411982 -3.051627 -0.202195
-6.439434 -3.064003 -0.104926
-6.895582 -3.280159 -0.002265
-3.299598 -1.597717 -1.195279
-3.478211 -1.679710 -1.197729
-3.656675 -1.765341 -1.192530
-3.863559 -1.862810 -1.192962
-4.092840 -1.970806 -1.190378
-4.168181 -2.004663 -1.141618
-4.166371 -2.001107 -1.068860
-4.314764 -2.069325 -1.035145
-4.639654 -2.223545 -1.034879
-4.951125 -2.370692 -1.023349
-5.348974 -2.558666 -1.016838
-5.714766 -2.732292 -0.994875
-6.163921 -2.944792 -0.971739
-6.727868 -3.211619 -0.954753
-7.332134 -3.498028 -0.922287
-8.073227 -3.849171 -0.889406
-6.314554 -3.008908 -0.594377
-6.353898 -3.027385 -0.500062
-6.370994 -3.034304 -0.400084
-6.397186 -3.046367 -0.303533
-6.411982 -3.051627 -0.202195
-6.439434 -3.064003 -0.104926
-6.895582 -3.280159 -0.002265
-3.480545 -1.621304 -1.190621
-3.660091 -1.704393 -1.185767
-3.861236 -1.795684 -1.184387
-4.105921 -1.906950 -1.186322
-4.174627 -1.936466 -1.135867
-4.169151 -1.931274 -1.062551
-4.329042 -2.002315 -1.031763
-4.634650 -2.142096 -1.026991
-4.969462 -2.294738 -1.020416
-5.319739 -2.454008 -1.004668
-5.741592 -2.647271 -0.993013
-6.215227 -2.863414 -0.973429
-6.721597 -3.094143 -0.947640
-7.383869 -3.396975 -0.922739
-6.542174 -3.007816 -0.716037
-6.681896 -3.070216 -0.624857
-6.638463 -3.049980 -0.519055
-6.539759 -3.003390 -0.408009
-6.646106 -3.051807 -0.313291
-6.639298 -3.046856 -0.208001
-6.706969 -3.077203 -0.108575
-7.180670 -3.293627 -0.002343
-3.480545 -1.621304 -1.190621
-3.660091 -1.704393 -1.185767
-3.861236 -1.795684 -1.184387
-4.105921 -1.906950 -1.186322
-4.174627 -1.936466 -1.135867
-4.169151 -1.931274 -1.062551
-4.329042 -2.002315 -1.031763
-4.634650 -2.142096 -1.026991
-4.969462 -2.294738 -1.020416
-5.319739 -2.454008 -1.004668
-5.741592 -2.647271 -0.993013
-6.215227 -2.863414 -0.973429
-6.721597 -3.094143 -0.947640
-7.383869 -3.396975 -0.922739
-8.158731 -3.751040 -0.892968
-6.681896 -3.070216 -0.624857
-6.638463 -3.049980 -0.519055
-6.539759 -3.003390 -0.408009
-6.646106 -3.051807 -0.313291
-6.639298 -3.046856 -0.208001
-6.706969 -3.077203 -0.108575
-3.502843 -1.572550 -1.190621
-3.694036 -1.657838 -1.189149
-3.868348 -1.733717 -1.179028
-4.125082 -1.846275 -1.184294
-4.194167 -1.874820 -1.133950
-4.185033 -1.868109 -1.059848
-4.342293 -1.935311 -1.028380
-4.660525 -2.075582 -1.026202
-4.983054 -2.217137 -1.016751
-5.357087 -2.381095 -1.005345
-5.749105 -2.554014 -0.988048
-6.229264 -2.765110 -0.969486
-6.742382 -2.990342 -0.944591
-7.379709 -3.271002 -0.916422
-8.159357 -3.614192 -0.887426
-7.012027 -3.104078 -0.651613
-7.296996 -3.229924 -0.566964
-6.683313 -2.957032 -0.414348
-7.060846 -3.123628 -0.330753
-7.035913 -3.110688 -0.219044
-7.038274 -3.110998 -0.113224
-3.502843 -1.572550 -1.190621
-3.694036 -1.657838 -1.189149
-3.868348 -1.733717 -1.179028
-4.125082 -1.846275 -1.184294
-4.194167 -1.874820 -1.133950
-4.185033 -1.868109 -1.059848
-4.342293 -1.935311 -1.028380
-4.660525 -2.075582 -1.026202
-4.983054 -2.217137 -1.016751
-5.357087 -2.381095 -1.005345
-5.749105 -2.554014 -0.988048
-6.229264 -2.765110 -0.969486
-6.742382 -2.990342 -0.944591
-7.379709 -3.271002 -0.916422
-8.159357 -3.614192 -0.887426
-7.012027 -3.104078 -0.651613
-9.208810 -4.076164 -0.715508
-6.683313 -2.957032 -0.414348
-10.057685 -4.449391 -0.471135
-3.520951 -1.521973 -1.189436
-3.706254 -1.601533 -1.185767
-3.881562 -1.674957 -1.175813
-4.157565 -1.791562 -1.186322
-4.216367 -1.814543 -1.132991
-4.217870 -1.812572 -1.061650
-4.350926 -1.866787 -1.024151
-4.689050 -2.010308 -1.026202
-5.013524 -2.147347 -1.016751
-5.375311 -2.299863 -1.002640
-5.747870 -2.457958 -0.981842
-6.259980 -2.674755 -0.968359
-6.772529 -2.891239 -0.943067
-7.417348 -3.164526 -0.915519
-8.176070 -3.485868 -0.883864
-8.701021 -3.707346 -0.803678
-9.213433 -3.925297 -0.711539
-10.174105 -4.332698 -0.626957
-3.520951 -1.521973 -1.189436
-3.706254 -1.601533 -1.185767
-3.881562 -1.674957 -1.175813
-4.157565 -1.791562 -1.186322
-4.216367 -1.814543 -1.132991
-4.217870 -1.812572 -1.061650
-4.350926 -1.866787 -1.024151
-4.689050 -2.010308 -1.026202
-5.013524 -2.147347 -1.016751
-5.375311 -2.299863 -1.002640
-5.747870 -2.457958 -0.981842
-6.259980 -2.674755 -0.968359
-6.772529 -2.891239 -0.943067
-7.417348 -3.164526 -0.915519
-8.176070 -3.485868 -0.883864
-8.701021 -3.707346 -0.803678
-9.213433 -3.925297 -0.711539
-10.174105 -4.332698 -0.626957
-3.534803 -1.469731 -1.187067
-3.745973 -1.556994 -1.191403
-3.908130 -1.622076 -1.176885
-4.164301 -1.725931 -1.181252
-4.230526 -1.751041 -1.130116
-4.239165 -1.752017 -1.060749
-4.387409 -1.810330 -1.026688
-4.694909 -1.935675 -1.021469
-5.003022 -2.060664 -1.008687
-5.392314 -2.218587 -0.999936
-5.785284 -2.378968 -0.982462
-6.289390 -2.584081 -0.967232
-6.790214 -2.787358 -0.940018
-7.413007 -3.041045 -0.909653
-8.187115 -3.356274 -0.879906
-8.744558 -3.582478 -0.803001
-9.289494 -3.805350 -0.713240
-9.945338 -4.072189 -0.609296
-3.534803 -1.469731 -1.187067
-3.745973 -1.556994 -1.191403
-3.908130 -1.622076 -1.176885
-4.164301 -1.725931 -1.181252
-4.230526 -1.751041 -1.130116
-4.239165 -1.752017 -1.060749
-4.387409 -1.810330 -1.026688
-4.694909 -1.935675 -1.021469
-5.003022 -2.060664 -1.008687
-5.392314 -2.218587 -0.999936
-5.785284 -2.378968 -0.982462
-6.289390 -2.584081 -0.967232
-6.790214 -2.787358 -0.940018
-7.413007 -3.041045 -0.909653
-8.187115 -3.356274 -0.879906
-8.744558 -3.582478 -0.803001
-9.289494 -3.805350 -0.713240
-9.945338 -4.072189 -0.609296
-3.554979 -1.420234 -1.187067
-3.745961 -1.496000 -1.184640
-3.916078 -1.561642 -1.172597
-4.184398 -1.666189 -1.180238
-4.258171 -1.693238 -1.131074
-4.248724 -1.686905 -1.057144
-4.415892 -1.750336 -1.027534
-4.725123 -1.871379 -1.022258
-5.009367 -1.981931 -1.004289
-5.415432 -2.140185 -0.998584
-5.825285 -2.300864 -0.983704
-6.299069 -2.485840 -0.963289
-6.821087 -2.689369 -0.939002
-7.473233 -2.944532 -0.911909
-8.192438 -3.225597 -0.875552
-8.775182 -3.452739 -0.801308
-9.271174 -3.647523 -0.707854
-10.131304 -3.984086 -0.617221
-3.554979 -1.420234 -1.187067
-3.745961 -1.496000 -1.184640
-3.916078 -1.561642 -1.172597
-4.184398 -1.666189 -1.180238
-4.258171 -1.693238 -1.131074
-4.248724 -1.686905 -1.057144
-4.415892 -1.750336 -1.027534
-4.725123 -1.871379 -1.022258
-5.009367 -1.981931 -1.004289
-5.415432 -2.140185 -0.998584
-5.825285 -2.300864 -0.983704
-6.299069 -2.485840 -0.963289
-6.821087 -2.689369 -0.939002
-7.473233 -2.944532 -0.911909
-8.192438 -3.225597 -0.875552
-8.775182 -3.452739 -0.801308
-9.271174 -3.647523 -0.707854
-10.131304 -3.984086 -0.617221
-3.560192 -1.364990 -1.182328
-3.773652 -1.446300 -1.186894
-3.959095 -1.515077 -1.179028
-4.196410 -1.603460 -1.177196
-4.285026 -1.635004 -1.132033
-4.275505 -1.628807 -1.058045
-4.425283 -1.682951 -1.024151
-4.725131 -1.795473 -1.016737
-5.036551 -1.911796 -1.004289
-5.400549 -2.047593 -0.990470
-5.779245 -2.189902 -0.970670
-6.310942 -2.389236 -0.959909
-6.846839 -2.589659 -0.937477
-7.457850 -2.818825 -0.905141
-8.184546 -3.091209 -0.870010
-8.770329 -3.310178 -0.796566
-9.298800 -3.509269 -0.706153
-9.875806 -3.725256 -0.598428
-3.560192 -1.364990 -1.182328
-3.773652 -1.446300 -1.186894
-3.959095 -1.515077 -1.179028
-4.196410 -1.603460 -1.177196
-4.285026 -1.635004 -1.132033
-4.275505 -1.628807 -1.058045
-4.425283 -1.682951 -1.024151
-4.725131 -1.795473 -1.016737
-5.036551 -1.911796 -1.004289
-5.400549 -2.047593 -0.990470
-5.779245 -2.189902 -0.970670
-6.310942 -2.389236 -0.959909
-6.846839 -2.589659 -0.937477
-7.457850 -2.818825 -0.905141
-8.184546 -3.091209 -0.870010
-8.770329 -3.310178 -0.796566
-9.298800 -3.509269 -0.706153
-9.875806 -3.725256 -0.598428
-3.575317 -1.313831 -1.181143
-3.771862 -1.385530 -1.180131
-3.947301 -1.447709 -1.169382
-4.207489 -1.540721 -1.174155
-4.274611 -1.563013 -1.123406
-4.286848 -1.564943 -1.055342
-4.448349 -1.621001 -1.024151
-4.742369 -1.726642 -1.015159
-5.062753 -1.841288 -1.004289
-5.417495 -1.967951 -0.988442
-5.824114 -2.114392 -0.973153
-6.343686 -2.300889 -0.959909
-6.845026 -2.480293 -0.932396
-7.500217 -2.715775 -0.905592
-8.219421 -2.973925 -0.869219
-8.770714 -3.171140 -0.792502
-9.301864 -3.362817 -0.702751
-9.539997 -3.447216 -0.575107
-3.575317 -1.313831 -1.181143
-3.771862 -1.385530 -1.180131
-3.947301 -1.447709 -1.169382
-4.207489 -1.540721 -1.174155
-4.274611 -1.563013 -1.123406
-4.286848 -1.564943 -1.055342
-4.448349 -1.621001 -1.024151
-4.742369 -1.726642 -1.015159
-5.062753 -1.841288 -1.004289
-5.417495 -1.967951 -0.988442
-5.824114 -2.114392 -0.973153
-6.343686 -2.300889 -0.959909
-6.845026 -2.480293 -0.932396
-7.500217 -2.715775 -0.905592
-8.219421 -2.973925 -0.869219
-8.770714 -3.171140 -0.792502
-9.301864 -3.362817 -0.702751
-9.539997 -3.447216 -0.575107
-3.779976 -1.328916 -1.176750
-3.974401 -1.395010 -1.171525
-4.224938 -1.480548 -1.173141
-4.307013 -1.507029 -1.126282
-4.315637 -1.507511 -1.057144
-4.455781 -1.553588 -1.020768
-4.743794 -1.652522 -1.010426
-5.047114 -1.756210 -0.996225
-5.463063 -1.898594 -0.991823
-5.841868 -2.028983 -0.971291
-6.367708 -2.209500 -0.958782
-6.863993 -2.379287 -0.930364
-7.541158 -2.612097 -0.906044
-8.241334 -2.852371 -0.867240
-8.787766 -3.039260 -0.790131
-9.310199 -3.219581 -0.699917
-9.507932 -3.286291 -0.570352
-9.801711 -3.387256 -0.444257
-3.779976 -1.328916 -1.176750
-3.974401 -1.395010 -1.171525
-4.224938 -1.480548 -1.173141
-4.307013 -1.507029 -1.126282
-4.315637 -1.507511 -1.057144
-4.455781 -1.553588 -1.020768
-4.743794 -1.652522 -1.010426
-5.047114 -1.756210 -0.996225
-5.463063 -1.898594 -0.991823
-5.841868 -2.028983 -0.971291
-6.367708 -2.209500 -0.958782
-6.863993 -2.379287 -0.930364
-7.541158 -2.612097 -0.906044
-8.241334 -2.852371 -0.867240
-8.787766 -3.039260 -0.790131
-9.310199 -3.219581 -0.699917
-9.507932 -3.286291 -0.570352
-3.801802 -1.277229 -1.177877
-3.986184 -1.336929 -1.169382
-4.252537 -1.423869 -1.175168
-4.331318 -1.447975 -1.127240
-4.317782 -1.440937 -1.052638
-4.473330 -1.489986 -1.019923
-4.766406 -1.586124 -1.010426
-5.082338 -1.689287 -0.998425
-5.459106 -1.812193 -0.986414
-5.854627 -1.942239 -0.968808
-6.352829 -2.105424 -0.952022
-6.900312 -2.284461 -0.930872
-7.580668 -2.507795 -0.906495
-8.261461 -2.730774 -0.865261
-8.814207 -2.911261 -0.788777
-9.369401 -3.094275 -0.701050
-9.583230 -3.163227 -0.572163
-9.844257 -3.248813 -0.444086
-5.628566 -0.651049 0.966893
-3.801802 -1.277229 -1.177877
-3.986184 -1.336929 -1.169382
-4.252537 -1.423869 -1.175168
-4.331318 -1.447975 -1.127240
-4.317782 -1.440937 -1.052638
-4.473330 -1.489986 -1.019923
-4.766406 -1.586124 -1.010426
-5.082338 -1.689287 -0.998425
-5.459106 -1.812193 -0.986414
-5.854627 -1.942239 -0.968808
-6.352829 -2.105424 -0.952022
-6.900312 -2.284461 -0.930872
-7.580668 -2.507795 -0.906495
-8.261461 -2.730774 -0.865261
-8.814207 -2.911261 -0.788777
-9.369401 -3.094275 -0.701050
-9.583230 -3.163227 -0.572163
-9.844257 -3.248813 -0.444086
-5.280768 -0.574888 0.827273
-5.542815 -0.601947 0.951418
-5.280768 -0.574888 0.827273
-5.542815 -0.601947 0.951418
-3.804644 -1.219338 -1.173368
-4.000792 -1.279969 -1.168310
-4.268317 -1.363178 -1.174155
-4.343713 -1.384999 -1.125323
-4.344907 -1.382874 -1.054440
-4.478793 -1.422649 -1.016540
-4.761923 -1.511118 -1.004905
-5.090435 -1.613410 -0.995492
-5.472600 -1.732226 -0.984386
-5.884942 -1.861498 -0.969429
-6.374055 -2.014133 -0.950896
-6.916401 -2.183118 -0.928839
-7.595992 -2.395730 -0.904239
-8.313969 -2.619945 -0.866844
-8.842591 -2.784321 -0.787761
-9.373631 -2.951174 -0.698216
-9.721697 -3.059083 -0.577824
-9.877221 -3.107451 -0.443572
-5.327000 -0.543541 0.757694
-5.351496 -0.544813 0.837737
-5.354663 -0.543719 0.918448
-5.357172 -0.542273 0.996604
-3.804644 -1.219338 -1.173368
-4.000792 -1.279969 -1.168310
-4.268317 -1.363178 -1.174155
-4.343713 -1.384999 -1.125323
-4.344907 -1.382874 -1.054440
-4.478793 -1.422649 -1.016540
-4.761923 -1.511118 -1.004905
-5.090435 -1.613410 -0.995492
-5.472600 -1.732226 -0.984386
-5.884942 -1.861498 -0.969429
-6.374055 -2.014133 -0.950896
-6.916401 -2.183118 -0.928839
-7.595992 -2.395730 -0.904239
-8.313969 -2.619945 -0.866844
-8.842591 -2.784321 -0.787761
-9.373631 -2.951174 -0.698216
-9.721697 -3.059083 -0.577824
-9.877221 -3.107451 -0.443572
-5.327000 -0.543541 0.757694
-5.351496 -0.544813 0.837737
-5.354663 -0.543719 0.918448
-5.357172 -0.542273 0.996604
-5.346436 -0.507840 0.759935
-5.323691 -0.504460 0.832812
-5.326925 -0.503359 0.913065
-5.321669 -0.501175 0.989324
-5.346436 -0.507840 0.759935
-5.323691 -0.504460 0.832812
-5.326925 -0.503359 0.913065
-5.321669 -0.501175 0.989324
-3.817628 -1.164978 -1.172241
-4.014586 -1.222861 -1.167238
-4.275828 -1.300074 -1.171113
-4.358912 -1.323089 -1.124364
-4.371251 -1.324335 -1.056243
-4.490735 -1.357714 -1.014848
-4.808835 -1.452420 -1.010426
-5.112465 -1.542179 -0.995492
-5.481153 -1.651099 -0.981681
-5.868737 -1.766621 -0.962602
-6.378800 -1.918099 -0.947516
-6.942408 -2.085196 -0.928331
-7.636314 -2.291725 -0.905141
-8.334488 -2.499035 -0.865261
-8.861515 -2.654868 -0.786067
-9.368058 -2.806271 -0.694814
-9.801720 -2.934503 -0.580088
-10.137870 -3.034562 -0.453330
-5.310398 -0.467029 0.754331
-5.331021 -0.467623 0.833428
-5.314598 -0.464781 0.910373
-5.297610 -0.461618 0.984228
-3.817628 -1.164978 -1.172241
-4.014586 -1.222861 -1.167238
-4.275828 -1.300074 -1.171113
-4.358912 -1.323089 -1.124364
-4.371251 -1.324335 -1.056243
-4.490735 -1.357714 -1.014848
-4.808835 -1.452420 -1.010426
-5.112465 -1.542179 -0.995492
-5.481153 -1.651099 -0.981681
-5.868737 -1.766621 -0.962602
-6.378800 -1.918099 -0.947516
-6.942408 -2.085196 -0.928331
-7.636314 -2.291725 -0.905141
-8.334488 -2.499035 -0.865261
-8.861515 -2.654868 -0.786067
-9.368058 -2.806271 -0.694814
-9.801720 -2.934503 -0.580088
-5.310398 -0.467029 0.754331
-5.331021 -0.467623 0.833428
-5.314598 -0.464781 0.910373
-5.297610 -0.461618 0.984228
-5.325372 -0.430903 0.756012
-5.302639 -0.427852 0.828504
-5.294131 -0.425770 0.906336
-5.304624 -0.424936 0.984956
-5.325372 -0.430903 0.756012
-5.302639 -0.427852 0.828504
-5.294131 -0.425770 0.906336
-5.304624 -0.424936 0.984956
-3.826149 -1.109424 -1.169987
-4.027567 -1.165618 -1.166166
-4.286128 -1.238099 -1.169085
-4.395617 -1.267480 -1.129157
-4.393061 -1.264252 -1.057144
-4.501738 -1.292723 -1.013157
-4.817337 -1.381893 -1.008060
-5.114598 -1.465233 -0.991827
-5.484720 -1.568988 -0.978301
-5.877633 -1.680164 -0.960119
-6.423999 -1.834286 -0.950332
-6.921244 -1.973915 -0.921726
-7.636990 -2.176168 -0.901531
-8.326456 -2.370436 -0.860907
-8.882384 -2.526522 -0.784712
-9.360272 -2.662101 -0.691412
-9.876308 -2.807190 -0.582126
-5.363799 -0.396341 0.761056
-5.313380 -0.391403 0.829735
-5.300907 -0.389089 0.907009
-5.307461 -0.387893 0.984956
-3.826149 -1.109424 -1.169987
-4.027567 -1.165618 -1.166166
-4.286128 -1.238099 -1.169085
-4.395617 -1.267480 -1.129157
-4.393061 -1.264252 -1.057144
-4.501738 -1.292723 -1.013157
-4.817337 -1.381893 -1.008060
-5.114598 -1.465233 -0.991827
-5.484720 -1.568988 -0.978301
-5.877633 -1.680164 -0.960119
-6.423999 -1.834286 -0.950332
-6.921244 -1.973915 -0.921726
-7.636990 -2.176168 -0.901531
-8.326456 -2.370436 -0.860907
-8.882384 -2.526522 -0.784712
-9.360272 -2.662101 -0.691412
-9.876308 -2.807190 -0.582126
-5.363799 -0.396341 0.761056
-5.313380 -0.391403 0.829735
-5.300907 -0.389089 0.907009
-5.307461 -0.387893 0.984956
-5.319014 -0.355714 0.754331
-5.319927 -0.354562 0.830350
-5.331034 -0.353901 0.911719
-5.321815 -0.351609 0.987140
-5.319014 -0.355714 0.754331
-5.319927 -0.354562 0.830350
-5.331034 -0.353901 0.911719
-5.321815 -0.351609 0.987140
-3.815360 -1.048776 -1.162097
-4.032299 -1.106215 -1.162951
-4.284336 -1.173029 -1.164015
-4.420376 -1.208034 -1.131074
-4.410283 -1.202795 -1.057144
-4.504258 -1.225640 -1.009774
-4.813456 -1.308330 -1.003327
-5.142147 -1.395743 -0.993293
-5.494676 -1.489166 -0.976273
-5.915774 -1.602071 -0.962602
-6.403110 -1.732010 -0.943572
-6.932807 -1.872953 -0.919693
-7.616744 -2.055868 -0.895666
-8.362583 -2.254992 -0.861302
-8.912944 -2.401227 -0.784374
-9.431201 -2.540498 -0.693963
-9.972383 -2.684600 -0.585522
-5.349041 -0.320233 0.758254
-5.373562 -0.320476 0.838352
-5.356991 -0.318081 0.915756
-5.367329 -0.317002 0.995148
-3.815360 -1.048776 -1.162097
-4.032299 -1.106215 -1.162951
-4.284336 -1.173029 -1.164015
-4.420376 -1.208034 -1.131074
-4.410283 -1.202795 -1.057144
-4.504258 -1.225640 -1.009774
-4.813456 -1.308330 -1.003327
-5.142147 -1.395743 -0.993293
-5.494676 -1.489166 -0.976273
-5.915774 -1.602071 -0.962602
-6.403110 -1.732010 -0.943572
-6.932807 -1.872953 -0.919693
-7.616744 -2.055868 -0.895666
-8.362583 -2.254992 -0.861302
-8.912944 -2.401227 -0.784374
-9.431201 -2.540498 -0.693963
-9.972383 -2.684600 -0.585522
-5.349041 -0.320233 0.758254
-5.373562 -0.320476 0.838352
-5.356991 -0.318081 0.915756
-5.367329 -0.317002 0.995148
-5.386743 -0.284760 0.763298
-5.316465 -0.279834 0.829119
-5.370894 -0.281289 0.917775
-5.334060 -0.277679 0.988596
-5.386743 -0.284760 0.763298
-5.316465 -0.279834 0.829119
-5.370894 -0.281289 0.917775
-5.334060 -0.277679 0.988596
-4.032431 -1.045935 -1.158663
-4.270331 -1.105336 -1.155903
-4.436813 -1.146196 -1.131074
-4.430421 -1.142070 -1.058045
-4.502000 -1.157759 -1.005546
-4.838851 -1.242944 -1.004905
-5.126853 -1.315015 -0.986696
-5.507294 -1.410343 -0.974920
-5.876316 -1.503641 -0.952672
-6.415159 -1.639494 -0.941882
-6.954439 -1.774987 -0.919185
-7.633154 -1.946370 -0.894312
-8.265966 -2.105582 -0.848240
-8.180822 -2.081916 -0.717316
-8.100799 -2.061251 -0.593894
-10.090175 -2.565763 -0.590277
-4.032431 -1.045935 -1.158663
-4.270331 -1.105336 -1.155903
-4.436813 -1.146196 -1.131074
-4.430421 -1.142070 -1.058045
-4.502000 -1.157759 -1.005546
-4.838851 -1.242944 -1.004905
-5.126853 -1.315015 -0.986696
-5.507294 -1.410343 -0.974920
-5.876316 -1.503641 -0.952672
-6.415159 -1.639494 -0.941882
-6.954439 -1.774987 -0.919185
-7.633154 -1.946370 -0.894312
-8.265966 -2.105582 -0.848240
-8.180822 -2.081916 -0.717316
-8.100799 -2.061251 -0.593894
-10.090175 -2.565763 -0.590277
-4.042898 -0.988616 -1.157591
-4.292865 -1.047440 -1.157931
-4.475023 -1.089649 -1.136826
-4.468657 -1.085621 -1.063453
-4.510127 -1.092947 -1.003854
-4.829053 -1.168804 -0.999384
-5.167648 -1.248847 -0.991094
-5.518784 -1.331463 -0.973568
-5.904420 -1.423300 -0.953913
-6.422024 -1.546057 -0.939629
-6.955398 -1.672150 -0.916136
-7.655721 -1.838677 -0.893861
-8.337135 -2.000180 -0.852594
-8.267232 -1.981425 -0.722396
-8.221911 -1.970261 -0.600698
-8.280219 -1.982860 -0.482727
-8.258816 -1.977276 -0.363794
-8.216825 -1.965251 -0.240561
-4.042898 -0.988616 -1.157591
-4.292865 -1.047440 -1.157931
-4.475023 -1.089649 -1.136826
-4.468657 -1.085621 -1.063453
-4.510127 -1.092947 -1.003854
-4.829053 -1.168804 -0.999384
-5.167648 -1.248847 -0.991094
-5.518784 -1.331463 -0.973568
-5.904420 -1.423300 -0.953913
-6.422024 -1.546057 -0.939629
-6.955398 -1.672150 -0.916136
-7.655721 -1.838677 -0.893861
-8.337135 -2.000180 -0.852594
-8.267232 -1.981425 -0.722396
-8.221911 -1.970261 -0.600698
-8.280219 -1.982860 -0.482727
-8.258816 -1.977276 -0.363794
-8.216825 -1.965251 -0.240561
-4.090110 -0.939839 -1.167238
-4.280671 -0.981348 -1.150834
-4.486015 -1.026196 -1.135867
-4.494778 -1.025724 -1.066156
-4.494451 -1.022929 -0.997089
-4.844902 -1.101266 -0.999384
-5.173076 -1.173963 -0.988895
-5.509921 -1.248181 -0.968836
-5.916009 -1.338978 -0.952672
-6.404358 -1.447510 -0.933996
-6.950975 -1.568761 -0.912580
-7.630243 -1.720244 -0.887995
-8.383665 -1.887953 -0.854573
-8.373184 -1.883290 -0.609769
-8.260341 -1.856548 -0.480010
-8.129653 -1.826728 -0.356946
-8.145931 -1.828443 -0.237715
-8.214853 -1.843160 -0.123875
-4.090110 -0.939839 -1.167238
-4.280671 -0.981348 -1.150834
-4.486015 -1.026196 -1.135867
-4.494778 -1.025724 -1.066156
-4.494451 -1.022929 -0.997089
-4.844902 -1.101266 -0.999384
-5.173076 -1.173963 -0.988895
-5.509921 -1.248181 -0.968836
-5.916009 -1.338978 -0.952672
-6.404358 -1.447510 -0.933996
-6.950975 -1.568761 -0.912580
-7.630243 -1.720244 -0.887995
-8.383665 -1.887953 -0.854573
-9.521529 -2.141575 -0.693396
-8.260341 -1.856548 -0.480010
-8.129653 -1.826728 -0.356946
-8.145931 -1.828443 -0.237715
-8.214853 -1.843160 -0.123875
-4.076460 -0.876967 -1.159735
-4.312871 -0.925544 -1.155903
-4.511298 -0.965900 -1.138743
-4.504849 -0.962053 -1.065255
-4.515943 -0.961705 -0.998780
-4.855970 -1.032698 -0.998595
-5.200503 -1.104071 -0.991094
-5.522954 -1.170312 -0.968160
-5.918663 -1.252974 -0.950189
-6.412320 -1.355494 -0.932306
-6.960555 -1.469099 -0.911055
-7.634073 -1.609442 -0.885739
-8.409208 -1.770715 -0.854573
-8.334935 -1.753099 -0.723751
-8.242481 -1.733354 -0.598430
-8.195568 -1.722147 -0.474803
-8.279517 -1.739333 -0.362425
-8.213712 -1.723562 -0.238968
-8.173243 -1.714325 -0.122875
-8.240860 -1.727605 -0.002497
-8.287158 -1.737010 0.113354
-4.076460 -0.876967 -1.159735
-4.312871 -0.925544 -1.155903
-4.511298 -0.965900 -1.138743
-4.504849 -0.962053 -1.065255
-4.515943 -0.961705 -0.998780
-4.855970 -1.032698 -0.998595
-5.200503 -1.104071 -0.991094
-5.522954 -1.170312 -0.968160
-5.918663 -1.252974 -0.950189
-6.412320 -1.355494 -0.932306
-6.960555 -1.469099 -0.911055
-7.634073 -1.609442 -0.885739
-8.409208 -1.770715 -0.854573
-8.334935 -1.753099 -0.723751
-8.242481 -1.733354 -0.598430
-8.195568 -1.722147 -0.474803
-8.213712 -1.723562 -0.238968
-8.173243 -1.714325 -0.122875
-8.240860 -1.727605 -0.002497
-8.287158 -1.737010 0.113354
-4.084528 -0.819210 -1.158663
-4.306402 -0.861445 -1.150834
-4.524344 -0.902821 -1.138743
-4.533131 -0.902107 -1.068860
-4.544269 -0.901606 -1.002163
-4.850681 -0.960990 -0.994651
-5.180692 -1.024491 -0.984496
-5.534887 -1.092326 -0.967484
-5.904565 -1.164104 -0.945224
-6.411192 -1.262012 -0.929489
-6.960921 -1.367951 -0.908515
-7.620699 -1.495812 -0.881678
-8.390142 -1.644714 -0.850219
-8.342953 -1.633497 -0.722396
-8.297204 -1.624240 -0.600698
-8.366474 -1.634010 -0.242725
-8.168902 -1.594683 -0.122463
-8.189584 -1.597828 -0.002475
-4.084528 -0.819210 -1.158663
-4.306402 -0.861445 -1.150834
-4.524344 -0.902821 -1.138743
-4.533131 -0.902107 -1.068860
-4.544269 -0.901606 -1.002163
-4.850681 -0.960990 -0.994651
-5.180692 -1.024491 -0.984496
-5.534887 -1.092326 -0.967484
-5.904565 -1.164104 -0.945224
-6.411192 -1.262012 -0.929489
-6.960921 -1.367951 -0.908515
-7.620699 -1.495812 -0.881678
-8.390142 -1.644714 -0.850219
-8.342953 -1.633497 -0.722396
-8.297204 -1.624240 -0.600698
-8.168902 -1.594683 -0.122463
-8.189584 -1.597828 -0.002475
-4.318011 -0.801231 -1.150834
-4.547965 -0.841681 -1.141618
-4.556782 -0.840845 -1.071564
-4.560260 -0.838774 -1.003009
-4.840485 -0.888917 -0.989918
-5.190624 -0.951345 -0.983763
-5.541843 -1.013518 -0.966131
-5.935792 -1.084386 -0.947707
-6.420397 -1.170949 -0.928363
-6.979343 -1.270623 -0.908515
-7.629111 -1.387127 -0.880324
-8.424040 -1.529537 -0.851407
-8.419850 -1.526802 -0.727138
-8.338703 -1.511788 -0.602115
-8.601984 -1.558127 -0.495633
-8.372735 -1.514185 -0.242269
-8.395034 -1.517461 -0.125523
-8.226840 -1.486166 -0.002479
-4.318011 -0.801231 -1.150834
-4.547965 -0.841681 -1.141618
-4.556782 -0.840845 -1.071564
-4.560260 -0.838774 -1.003009
-4.840485 -0.888917 -0.989918
-5.190624 -0.951345 -0.983763
-5.541843 -1.013518 -0.966131
-5.935792 -1.084386 -0.947707
-6.420397 -1.170949 -0.928363
-6.979343 -1.270623 -0.908515
-7.629111 -1.387127 -0.880324
-8.424040 -1.529537 -0.851407
-8.419850 -1.526802 -0.727138
-8.338703 -1.511788 -0.602115
-4.298137 -0.736392 -1.142722
-4.570621 -0.780857 -1.144494
-4.583311 -0.780555 -1.075169
-4.582954 -0.777781 -1.005546
-4.863880 -0.824059 -0.992284
-5.211002 -0.880999 -0.985230
-5.543628 -0.935046 -0.964103
-5.919005 -0.997190 -0.942742
-6.400783 -1.076404 -0.923293
-6.937506 -1.164422 -0.900893
-7.659270 -1.283778 -0.881678
-8.318703 -1.392219 -0.838741
-8.467620 -1.415166 -0.729508
-8.382367 -1.400618 -0.603816
-8.555685 -1.428199 -0.491784
-4.298137 -0.736392 -1.142722
-4.570621 -0.780857 -1.144494
-4.583311 -0.780555 -1.075169
-4.582954 -0.777781 -1.005546
-4.863880 -0.824059 -0.992284
-5.211002 -0.880999 -0.985230
-5.543628 -0.935046 -0.964103
-5.919005 -0.997190 -0.942742
-6.400783 -1.076404 -0.923293
-6.937506 -1.164422 -0.900893
-7.659270 -1.283778 -0.881678
-8.318703 -1.392219 -0.838741
-8.467620 -1.415166 -0.729508
-8.382367 -1.400618 -0.603816
-4.319467 -0.678109 -1.145764
-4.546547 -0.711561 -1.135867
-4.593762 -0.716486 -1.075169
-4.612683 -0.716719 -1.009774
-4.874911 -0.756068 -0.992284
-5.203365 -0.805149 -0.981564
-5.517180 -0.851540 -0.957342
-5.916730 -0.912043 -0.940259
-6.415188 -0.986931 -0.923293
-6.972695 -1.070456 -0.903434
-7.625376 -1.168884 -0.875812
-8.360938 -1.279549 -0.841116
-8.498373 -1.298608 -0.730524
-8.487878 -1.296702 -0.610053
-8.480042 -1.294144 -0.486350
-8.458292 -1.290370 -0.366533
-8.435243 -1.284894 -0.242952
-4.319467 -0.678109 -1.145764
-4.546547 -0.711561 -1.135867
-4.593762 -0.716486 -1.075169
-4.612683 -0.716719 -1.009774
-4.874911 -0.756068 -0.992284
-5.203365 -0.805149 -0.981564
-5.517180 -0.851540 -0.957342
-5.916730 -0.912043 -0.940259
-6.415188 -0.986931 -0.923293
-6.972695 -1.070456 -0.903434
-7.625376 -1.168884 -0.875812
-8.360938 -1.279549 -0.841116
-8.498373 -1.298608 -0.730524
-8.487878 -1.296702 -0.610053
-8.480042 -1.294144 -0.486350
-8.458292 -1.290370 -0.366533
-8.435243 -1.284894 -0.242952
-4.309361 -0.615001 -1.140694
-4.571418 -0.650199 -1.139701
-4.622611 -0.655011 -1.079675
-4.633854 -0.653884 -1.012311
-4.865577 -0.685196 -0.988341
-5.194629 -0.729686 -0.977899
-5.532436 -0.774972 -0.958018
-5.897580 -0.824964 -0.935294
-6.408731 -0.894527 -0.920476
-6.912298 -0.962600 -0.893779
-7.648827 -1.063398 -0.876714
-8.334620 -1.156669 -0.836762
-8.544677 -1.183540 -0.612888
-8.481462 -1.173429 -0.485444
-8.439857 -1.167221 -0.364992
-8.464243 -1.168635 -0.243294
-4.309361 -0.615001 -1.140694
-4.571418 -0.650199 -1.139701
-4.622611 -0.655011 -1.079675
-4.633854 -0.653884 -1.012311
-4.865577 -0.685196 -0.988341
-5.194629 -0.729686 -0.977899
-5.532436 -0.774972 -0.958018
-5.897580 -0.824964 -0.935294
-6.408731 -0.894527 -0.920476
-6.912298 -0.962600 -0.893779
-7.648827 -1.063398 -0.876714
-8.334620 -1.156669 -0.836762
-8.544677 -1.183540 -0.612888
-8.481462 -1.173429 -0.485444
-8.439857 -1.167221 -0.364992
-8.464243 -1.168635 -0.243294
-4.306014 -0.553293 -1.137652
-4.564642 -0.584336 -1.135867
-4.639037 -0.591391 -1.081477
-4.658047 -0.591091 -1.015694
-4.878560 -0.617688 -0.989129
-5.212113 -0.658071 -0.979365
-5.511424 -0.693712 -0.952609
-5.896761 -0.741062 -0.933432
-6.404880 -0.802990 -0.918223
-6.952622 -0.869442 -0.897336
-7.639265 -0.953547 -0.874007
-8.353907 -1.040679 -0.837157
-8.610422 -1.070649 -0.737298
-8.592045 -1.068060 -0.615155
-8.528725 -1.058831 -0.487256
-8.498956 -1.054682 -0.366876
-8.491639 -1.051817 -0.243635
-8.633179 -1.068584 -0.127995
-4.306014 -0.553293 -1.137652
-4.564642 -0.584336 -1.135867
-4.639037 -0.591391 -1.081477
-4.658047 -0.591091 -1.015694
-4.878560 -0.617688 -0.989129
-5.212113 -0.658071 -0.979365
-5.511424 -0.693712 -0.952609
-5.896761 -0.741062 -0.933432
-6.404880 -0.802990 -0.918223
-6.952622 -0.869442 -0.897336
-7.639265 -0.953547 -0.874007
-8.353907 -1.040679 -0.837157
-8.610422 -1.070649 -0.737298
-8.592045 -1.068060 -0.615155
-8.528725 -1.058831 -0.487256
-8.498956 -1.054682 -0.366876
-8.491639 -1.051817 -0.243635
-8.633179 -1.068584 -0.127995
-4.545347 -0.517472 -1.129157
-4.670076 -0.529195 -1.086885
-4.669730 -0.526435 -1.016540
-4.875018 -0.548197 -0.986763
-5.181715 -0.580854 -0.972035
-5.477474 -0.611879 -0.945173
-5.415631 -0.603916 -0.855853
-6.411530 -0.713048 -0.917659
-6.952254 -0.770971 -0.895812
-7.632082 -0.844607 -0.871751
-8.339929 -0.920881 -0.834387
-8.545242 -0.937513 -0.244774
-8.547862 -0.937046 -0.126524
-5.352878 -0.586801 0.453414
-4.545347 -0.517472 -1.129157
-4.670076 -0.529195 -1.086885
-4.669730 -0.526435 -1.016540
-4.875018 -0.548197 -0.986763
-5.181715 -0.580854 -0.972035
-5.477474 -0.611879 -0.945173
-5.415631 -0.603916 -0.855853
-6.411530 -0.713048 -0.917659
-6.952254 -0.770971 -0.895812
-7.632082 -0.844607 -0.871751
-8.339929 -0.920881 -0.834387
-8.545242 -0.937513 -0.244774
-8.547862 -0.937046 -0.126524
-5.352878 -0.586801 0.453414
-4.579178 -0.456656 -1.135867
-4.696400 -0.465863 -1.091391
-4.703860 -0.463869 -1.022460
-4.890002 -0.480846 -0.988341
-4.938855 -0.483909 -0.925119
-4.892988 -0.477519 -0.843083
-4.876855 -0.474998 -0.769585
-4.895463 -0.475345 -0.699652
-5.378734 -0.520563 -0.692056
-5.388170 -0.520242 -0.614558
-5.396294 -0.519697 -0.539106
-5.399587 -0.518777 -0.460938
-5.385580 -0.517242 -0.384401
-5.390581 -0.516869 -0.307025
-5.366471 -0.514273 -0.230945
-5.365353 -0.512937 -0.153467
-5.386898 -0.514522 -0.079622
-5.359662 -0.511353 -0.001597
-5.375125 -0.512640 0.072285
-5.373526 -0.512395 0.150585
-5.355004 -0.511192 0.223768
-5.371391 -0.510392 0.301468
-5.346664 -0.510396 0.374350
-5.340710 -0.510111 0.451736
-5.361732 -0.512119 0.528493
-5.337721 -0.510391 0.604199
-5.352492 -0.512179 0.681839
-4.579178 -0.456656 -1.135867
-4.696400 -0.465863 -1.091391
-4.703860 -0.463869 -1.022460
-4.890002 -0.480846 -0.988341
-4.938855 -0.483909 -0.925119
-4.892988 -0.477519 -0.843083
-4.876855 -0.474998 -0.769585
-4.895463 -0.475345 -0.699652
-7.005781 -0.678032 -0.901401
-5.388170 -0.520242 -0.614558
-5.396294 -0.519697 -0.539106
-5.399587 -0.518777 -0.460938
-5.385580 -0.517242 -0.384401
-5.390581 -0.516869 -0.307025
-5.366471 -0.514273 -0.230945
-5.365353 -0.512937 -0.153467
-5.386898 -0.514522 -0.079622
-5.359662 -0.511353 -0.001597
-5.375125 -0.512640 0.072285
-5.373526 -0.512395 0.150585
-5.355004 -0.511192 0.223768
-5.371391 -0.510392 0.301468
-5.346664 -0.510396 0.374350
-5.340710 -0.510111 0.451736
-5.361732 -0.512119 0.528493
-5.337721 -0.510391 0.604199
-5.352492 -0.512179 0.681839
-4.538677 -0.388700 -1.124364
-4.725746 -0.402228 -1.096798
-4.702087 -0.397489 -1.020768
-4.868886 -0.410219 -0.982819
-4.890272 -0.410302 -0.914856
-4.859891 -0.405874 -0.836322
-4.847571 -0.403907 -0.763999
-4.850318 -0.402687 -0.692329
-4.918895 -0.406824 -0.632099
-5.347376 -0.441040 -0.609143
-5.359387 -0.440714 -0.534752
-5.350692 -0.438776 -0.456197
-5.344558 -0.438086 -0.381000
-5.353488 -0.437973 -0.304535
-5.337280 -0.436365 -0.229404
-5.324170 -0.434076 -0.152101
-5.337748 -0.434714 -0.078798
-5.334384 -0.433876 -0.001587
-5.329935 -0.433328 0.071589
-5.328347 -0.433107 0.149135
-5.321786 -0.433133 0.222105
-5.326244 -0.431156 0.298567
-5.321452 -0.433106 0.372125
-5.323475 -0.433552 0.449722
-5.312812 -0.432683 0.523025
-5.308671 -0.432907 0.600168
-5.315616 -0.433845 0.676304
-4.538677 -0.388700 -1.124364
-4.725746 -0.402228 -1.096798
-4.702087 -0.397489 -1.020768
-4.868886 -0.410219 -0.982819
-4.890272 -0.410302 -0.914856
-4.859891 -0.405874 -0.836322
-4.847571 -0.403907 -0.763999
-4.850318 -0.402687 -0.692329
-4.918895 -0.406824 -0.632099
-5.347376 -0.441040 -0.609143
-5.359387 -0.440714 -0.534752
-5.350692 -0.438776 -0.456197
-5.344558 -0.438086 -0.381000
-5.353488 -0.437973 -0.304535
-5.337280 -0.436365 -0.229404
-5.324170 -0.434076 -0.152101
-5.337748 -0.434714 -0.078798
-5.334384 -0.433876 -0.001587
-5.329935 -0.433328 0.071589
-5.328347 -0.433107 0.149135
-5.321786 -0.433133 0.222105
-5.326244 -0.431156 0.298567
-5.321452 -0.433106 0.372125
-5.323475 -0.433552 0.449722
-5.312812 -0.432683 0.523025
-5.308671 -0.432907 0.600168
-5.315616 -0.433845 0.676304
-4.555282 -0.326124 -1.127240
-4.750338 -0.337589 -1.101304
-4.746177 -0.334548 -1.029225
-4.850667 -0.340551 -0.978086
-4.864142 -0.339791 -0.908992
-4.825754 -0.335248 -0.829561
-4.813317 -0.333454 -0.757793
-4.851517 -0.334655 -0.691765
-4.892429 -0.335932 -0.628034
-5.317326 -0.363894 -0.605082
-5.345162 -0.364488 -0.532772
-5.340391 -0.362945 -0.454842
-5.354134 -0.363692 -0.381283
-5.355098 -0.362914 -0.304308
-5.338866 -0.361532 -0.229233
-5.345668 -0.360773 -0.152557
-5.335316 -0.359607 -0.078680
-5.335931 -0.359086 -0.001586
-5.331475 -0.358600 0.071536
-5.325896 -0.358133 0.148912
-5.347252 -0.360130 0.222937
-5.331744 -0.356748 0.298567
-5.342905 -0.359837 0.373237
-5.340940 -0.359986 0.450729
-5.330250 -0.359266 0.524197
-5.337993 -0.360351 0.602855
-5.329073 -0.360121 0.677311
-4.555282 -0.326124 -1.127240
-4.750338 -0.337589 -1.101304
-4.746177 -0.334548 -1.029225
-4.850667 -0.340551 -0.978086
-4.864142 -0.339791 -0.908992
-4.825754 -0.335248 -0.829561
-4.813317 -0.333454 -0.757793
-4.851517 -0.334655 -0.691765
-4.892429 -0.335932 -0.628034
-5.317326 -0.363894 -0.605082
-5.345162 -0.364488 -0.532772
-5.340391 -0.362945 -0.454842
-5.354134 -0.363692 -0.381283
-5.355098 -0.362914 -0.304308
-5.338866 -0.361532 -0.229233
-5.345668 -0.360773 -0.152557
-5.335316 -0.359607 -0.078680
-5.335931 -0.359086 -0.001586
-5.331475 -0.358600 0.071536
-5.325896 -0.358133 0.148912
-5.347252 -0.360130 0.222937
-5.331744 -0.356748 0.298567
-5.342905 -0.359837 0.373237
-5.340940 -0.359986 0.450729
-5.330250 -0.359266 0.524197
-5.337993 -0.360351 0.602855
-5.329073 -0.360121 0.677311
-4.785715 -0.273006 -1.108514
-4.773806 -0.269571 -1.034300
-4.851035 -0.272572 -0.977298
-4.876265 -0.272282 -0.910458
-4.829965 -0.267837 -0.829561
-4.829340 -0.266871 -0.759655
-4.867579 -0.267536 -0.693455
-4.880796 -0.266724 -0.626001
-5.401260 -0.293936 -0.614106
-5.405374 -0.292837 -0.538314
-5.404636 -0.291566 -0.459922
-5.398532 -0.291049 -0.384118
-5.387557 -0.289610 -0.305893
-5.415224 -0.290812 -0.232315
-5.406082 -0.289090 -0.154151
-5.391737 -0.287851 -0.079445
-5.396345 -0.287529 -0.001603
-5.411848 -0.288166 0.072553
-5.398255 -0.287350 0.150809
-5.395659 -0.287777 0.224765
-5.404005 -0.285857 0.302361
-5.371317 -0.286478 0.374906
-5.353406 -0.285805 0.451400
-5.366549 -0.286507 0.527321
-5.366320 -0.287059 0.605543
-5.381132 -0.288227 0.683349
-4.785715 -0.273006 -1.108514
-4.773806 -0.269571 -1.034300
-4.851035 -0.272572 -0.977298
-4.876265 -0.272282 -0.910458
-4.829965 -0.267837 -0.829561
-4.829340 -0.266871 -0.759655
-4.867579 -0.267536 -0.693455
-4.880796 -0.266724 -0.626001
-5.401260 -0.293936 -0.614106
-5.405374 -0.292837 -0.538314
-5.404636 -0.291566 -0.459922
-5.398532 -0.291049 -0.384118
-5.387557 -0.289610 -0.305893
-5.391737 -0.287851 -0.079445
-5.411848 -0.288166 0.072553
-5.398255 -0.287350 0.150809
-5.404005 -0.285857 0.302361
-5.371317 -0.286478 0.374906
-5.353406 -0.285805 0.451400
-5.366549 -0.286507 0.527321
-5.366320 -0.287059 0.605543
-5.381132 -0.288227 0.683349
-4.789060 -0.206161 -1.108514
-4.808353 -0.204219 -1.041065
-4.854367 -0.204814 -0.977298
-4.934594 -0.206474 -0.920720
-4.884441 -0.202497 -0.838350
-4.864181 -0.200720 -0.764620
-4.886667 -0.200197 -0.695709
-4.935580 -0.200647 -0.632607
-7.612839 -0.307754 -0.864983
-4.789060 -0.206161 -1.108514
-4.808353 -0.204219 -1.041065
-4.854367 -0.204814 -0.977298
-4.934594 -0.206474 -0.920720
-4.884441 -0.202497 -0.838350
-4.864181 -0.200720 -0.764620
-4.886667 -0.200197 -0.695709
-4.935580 -0.200647 -0.632607
-7.612839 -0.307754 -0.864983
-4.830426 -0.140407 -1.117527
-4.838091 -0.137844 -1.046985
-4.848914 -0.136796 -0.975720
-5.133533 -0.143032 -0.957373
-5.371531 -0.147600 -0.921509
-4.917860 -0.134187 -0.772688
-6.401207 -0.172762 -0.910900
-6.913061 -0.184402 -0.885649
-7.608448 -0.201222 -0.864080
-4.830426 -0.140407 -1.117527
-4.838091 -0.137844 -1.046985
-4.848914 -0.136796 -0.975720
-5.133533 -0.143032 -0.957373
-5.371531 -0.147600 -0.921509
-5.921183 -0.161564 -0.930329
-6.401207 -0.172762 -0.910900
-6.913061 -0.184402 -0.885649
-7.608448 -0.201222 -0.864080
-4.828020 -0.072891 -1.116625
-4.874727 -0.070791 -1.054597
-4.858193 -0.069193 -0.977298
-5.170416 -0.071834 -0.963971
-5.491330 -0.074185 -0.941792
-5.891252 -0.078454 -0.925364
-6.359437 -0.082803 -0.904703
-6.895125 -0.087610 -0.883109
-7.590645 -0.094724 -0.861824
-4.828020 -0.072891 -1.116625
-4.874727 -0.070791 -1.054597
-4.858193 -0.069193 -0.977298
-5.170416 -0.071834 -0.963971
-5.491330 -0.074185 -0.941792
-5.891252 -0.078454 -0.925364
-6.359437 -0.082803 -0.904703
-6.895125 -0.087610 -0.883109
-7.590645 -0.094724 -0.861824
-4.902607 -0.002737 -1.060517
-4.878293 -0.001360 -0.981242
-5.151254 0.000362 -0.960306
-5.483946 0.002490 -0.940440
-5.907579 0.003818 -0.927847
-6.356013 0.005993 -0.904140
-6.895677 0.008669 -0.883109
-4.902607 -0.002737 -1.060517
-4.878293 -0.001360 -0.981242
-5.151254 0.000362 -0.960306
-5.483946 0.002490 -0.940440
-5.907579 0.003818 -0.927847
-6.356013 0.005993 -0.904140
-6.895677 0.008669 -0.883109
-4.944495 0.067664 -0.994651
-5.150746 0.072284 -0.960306
-5.495203 0.079228 -0.942468
-5.891146 0.086070 -0.925364
-6.351350 0.094677 -0.903576
-6.839344 0.104102 -0.875995
-4.944495 0.067664 -0.994651
-5.150746 0.072284 -0.960306
-5.495203 0.079228 -0.942468
-5.891146 0.086070 -0.925364
-6.351350 0.094677 -0.903576
-6.839344 0.104102 -0.875995
-5.129581 0.143643 -0.956640
-5.493561 0.155945 -0.942468
-5.873570 0.167863 -0.922882
-6.377119 0.184147 -0.907520
-6.884814 0.200973 -0.882093
-5.129581 0.143643 -0.956640
-5.493561 0.155945 -0.942468
-5.873570 0.167863 -0.922882
-6.377119 0.184147 -0.907520
-6.884814 0.200973 -0.882093
-5.127076 0.215249 -0.956640
-5.475093 0.231965 -0.939764
-5.846966 0.248846 -0.919158
-6.334361 0.271472 -0.901886
-6.877373 0.296909 -0.881584
-5.127076 0.215249 -0.956640
-5.475093 0.231965 -0.939764
-5.846966 0.248846 -0.919158
-6.334361 0.271472 -0.901886
-6.877373 0.296909 -0.881584
-5.487064 0.309274 -0.942468
-5.850812 0.330905 -0.920399
-6.329953 0.359887 -0.901886
-6.872557 0.392903 -0.881584
-5.487064 0.309274 -0.942468
-5.850812 0.330905 -0.920399
-6.329953 0.359887 -0.901886
-6.872557 0.392903 -0.881584
-5.474347 0.385302 -0.941116
-5.861388 0.413675 -0.922882
-6.344062 0.449631 -0.904703
-6.866401 0.488821 -0.881584
-5.474347 0.385302 -0.941116
-5.861388 0.413675 -0.922882
-6.344062 0.449631 -0.904703
-6.866401 0.488821 -0.881584
-5.476371 0.461405 -0.942468
-5.607062 0.473502 -0.883782
-6.285962 0.532711 -0.897380
-6.847149 0.582437 -0.880060
-5.476371 0.461405 -0.942468
-5.607062 0.473502 -0.883782
-6.285962 0.532711 -0.897380
-6.847149 0.582437 -0.880060
-5.485089 0.539362 -0.945173
-5.525187 0.544377 -0.871990
-5.517311 0.545254 -0.788658
-5.527535 0.548018 -0.711365
-5.513256 0.547867 -0.628996
-5.549029 0.552789 -0.554543
-5.485089 0.539362 -0.945173
-5.525187 0.544377 -0.871990
-5.517311 0.545254 -0.788658
-5.527535 0.548018 -0.711365
-5.513256 0.547867 -0.628996
-5.481707 0.617491 -0.866404
-5.540770 0.630216 -0.554543
-5.481707 0.617491 -0.866404
-5.540770 0.630216 -0.554543
-6.198272 0.964420 -0.892310
-6.198272 0.964420 -0.892310
-6.192012 1.052190 -0.893436
-6.192012 1.052190 -0.893436
-6.161138 1.135674 -0.891183
-6.161138 1.135674 -0.891183
-6.140797 1.220815 -0.890620
-6.140797 1.220815 -0.890620
